<svg xmlns="http://www.w3.org/2000/svg" viewBox="0 0 32 32">
  <defs>
    <linearGradient id="grug-grad" x1="0%" y1="0%" x2="100%" y2="100%">
      <stop offset="0%" stop-color="#3b82f6"/>
      <stop offset="100%" stop-color="#8b5cf6"/>
    </linearGradient>
  </defs>
  <!-- Stylized modern grid neural brain -->
  <rect width="32" height="32" rx="6" fill="#0b0f19"/>
  <path d="M16 8C13 8 10 9.5 9 12C7.5 12 6.5 13 6 15C5.5 17 6 19.5 8 21C8 23 10 24 12 24C13.5 24 15 23 16 21.5C17 23 18.5 24 20 24C22 24 24 23 24 21C26 19.5 26.5 17 26 15C25.5 13 24.5 12 23 12C22 9.5 19 8 16 8Z" fill="url(#grug-grad)"/>
  <!-- Neural paths -->
  <circle cx="16" cy="12" r="1.5" fill="#ffffff" opacity="0.9"/>
  <circle cx="12" cy="15" r="1.2" fill="#ffffff" opacity="0.9"/>
  <circle cx="20" cy="15" r="1.2" fill="#ffffff" opacity="0.9"/>
  <circle cx="13" cy="19" r="1" fill="#ffffff" opacity="0.8"/>
  <circle cx="19" cy="19" r="1" fill="#ffffff" opacity="0.8"/>
  <path d="M16 12L12 15M16 12L20 15M12 15L13 19M20 15L19 19" stroke="#ffffff" stroke-width="0.8" opacity="0.6"/>
</svg>
